<svg xmlns="http://www.w3.org/2000/svg" width="1200" height="630" viewBox="0 0 1200 630" role="img" aria-labelledby="title description">
  <title id="title">CV Studio social preview</title>
  <desc id="description">A green and cream presentation card with a miniature résumé layout.</desc>
  <defs>
    <filter id="shadow" x="-20%" y="-20%" width="140%" height="150%">
      <feDropShadow dx="0" dy="20" stdDeviation="22" flood-color="#14241c" flood-opacity=".2"/>
    </filter>
    <linearGradient id="glow" x1="0" y1="0" x2="1" y2="1">
      <stop offset="0" stop-color="#f9f8f3"/>
      <stop offset="1" stop-color="#e9ece2"/>
    </linearGradient>
  </defs>

  <rect width="1200" height="630" fill="url(#glow)"/>
  <circle cx="1120" cy="80" r="230" fill="#d8ee9f" opacity=".28"/>
  <circle cx="70" cy="625" r="185" fill="#f0a58e" opacity=".12"/>

  <g transform="translate(82 76)">
    <rect width="52" height="52" rx="15" fill="#284b3b"/>
    <text x="26" y="36" fill="#fff" font-family="Georgia, serif" font-size="28" font-style="italic" text-anchor="middle">C</text>
    <text x="69" y="34" fill="#1a241f" font-family="-apple-system, BlinkMacSystemFont, Segoe UI, sans-serif" font-size="23" font-weight="700">CV Studio</text>

    <text x="0" y="151" fill="#748078" font-family="ui-monospace, SFMono-Regular, Consolas, monospace" font-size="14" font-weight="700" letter-spacing="2.2">YOUR STORY, CLEARLY TOLD</text>
    <text x="0" y="215" fill="#1a241f" font-family="Georgia, serif" font-size="55">Build a résumé</text>
    <text x="0" y="276" fill="#1a241f" font-family="Georgia, serif" font-size="55">that feels like you.</text>
    <text x="0" y="329" fill="#66706a" font-family="-apple-system, BlinkMacSystemFont, Segoe UI, sans-serif" font-size="20">A thoughtful editor with a polished,</text>
    <text x="0" y="358" fill="#66706a" font-family="-apple-system, BlinkMacSystemFont, Segoe UI, sans-serif" font-size="20">print-ready preview.</text>

    <g transform="translate(0 410)">
      <rect width="196" height="52" rx="26" fill="#284b3b"/>
      <text x="98" y="33" fill="#fff" font-family="-apple-system, BlinkMacSystemFont, Segoe UI, sans-serif" font-size="16" font-weight="700" text-anchor="middle">Edit · Save · Print</text>
    </g>
  </g>

  <g transform="translate(705 48)" filter="url(#shadow)">
    <rect width="390" height="534" fill="#fffefa"/>
    <rect width="390" height="126" fill="#284b3b"/>
    <circle cx="61" cy="62" r="34" fill="none" stroke="#d8ee9f" stroke-opacity=".72" stroke-width="2"/>
    <text x="61" y="72" fill="#d8ee9f" font-family="Georgia, serif" font-size="28" font-style="italic" text-anchor="middle">MC</text>
    <text x="115" y="51" fill="#becdc3" font-family="ui-monospace, SFMono-Regular, Consolas, monospace" font-size="8" letter-spacing="1.8">CURRICULUM VITAE</text>
    <text x="115" y="78" fill="#fff" font-family="Georgia, serif" font-size="27">Maya Chen</text>
    <text x="115" y="98" fill="#d1dbd4" font-family="-apple-system, BlinkMacSystemFont, Segoe UI, sans-serif" font-size="10">Senior Product Designer</text>

    <rect y="126" width="124" height="408" fill="#f0f1e9"/>
    <text x="23" y="164" fill="#2b3c33" font-family="ui-monospace, SFMono-Regular, Consolas, monospace" font-size="8" font-weight="700" letter-spacing="1.5">CONTACT</text>
    <rect x="23" y="180" width="70" height="5" rx="2.5" fill="#8c958d" opacity=".42"/>
    <rect x="23" y="194" width="82" height="5" rx="2.5" fill="#8c958d" opacity=".28"/>
    <rect x="23" y="222" width="58" height="5" rx="2.5" fill="#8c958d" opacity=".42"/>
    <rect x="23" y="236" width="76" height="5" rx="2.5" fill="#8c958d" opacity=".28"/>
    <text x="23" y="296" fill="#2b3c33" font-family="ui-monospace, SFMono-Regular, Consolas, monospace" font-size="8" font-weight="700" letter-spacing="1.5">EDUCATION</text>
    <rect x="23" y="314" width="76" height="6" rx="3" fill="#334138" opacity=".55"/>
    <rect x="23" y="329" width="64" height="5" rx="2.5" fill="#8c958d" opacity=".28"/>
    <rect x="23" y="342" width="51" height="5" rx="2.5" fill="#8c958d" opacity=".2"/>

    <text x="153" y="164" fill="#2b3c33" font-family="ui-monospace, SFMono-Regular, Consolas, monospace" font-size="8" font-weight="700" letter-spacing="1.5">PROFILE</text>
    <rect x="153" y="181" width="203" height="5" rx="2.5" fill="#59635d" opacity=".3"/>
    <rect x="153" y="194" width="186" height="5" rx="2.5" fill="#59635d" opacity=".24"/>
    <rect x="153" y="207" width="211" height="5" rx="2.5" fill="#59635d" opacity=".24"/>
    <rect x="153" y="220" width="148" height="5" rx="2.5" fill="#59635d" opacity=".24"/>
    <line x1="153" y1="252" x2="361" y2="252" stroke="#e4e5de"/>
    <text x="153" y="286" fill="#2b3c33" font-family="ui-monospace, SFMono-Regular, Consolas, monospace" font-size="8" font-weight="700" letter-spacing="1.5">EXPERIENCE</text>
    <line x1="160" y1="309" x2="160" y2="473" stroke="#d5d9d2"/>
    <circle cx="160" cy="316" r="5" fill="#f0a58e"/>
    <rect x="177" y="310" width="108" height="7" rx="3.5" fill="#2b3730" opacity=".68"/>
    <rect x="177" y="327" width="72" height="5" rx="2.5" fill="#69736d" opacity=".35"/>
    <rect x="177" y="352" width="169" height="5" rx="2.5" fill="#606a64" opacity=".24"/>
    <rect x="177" y="365" width="153" height="5" rx="2.5" fill="#606a64" opacity=".24"/>
    <rect x="177" y="378" width="177" height="5" rx="2.5" fill="#606a64" opacity=".24"/>
    <circle cx="160" cy="419" r="5" fill="#f0a58e"/>
    <rect x="177" y="413" width="91" height="7" rx="3.5" fill="#2b3730" opacity=".68"/>
    <rect x="177" y="430" width="64" height="5" rx="2.5" fill="#69736d" opacity=".35"/>
    <rect x="177" y="455" width="181" height="5" rx="2.5" fill="#606a64" opacity=".24"/>
    <rect x="177" y="468" width="141" height="5" rx="2.5" fill="#606a64" opacity=".24"/>
  </g>
</svg>
